<?xml version="1.0" standalone="no"?>
<!DOCTYPE svg PUBLIC "-//W3C//DTD SVG 20010904//EN"
 "http://www.w3.org/TR/2001/REC-SVG-20010904/DTD/svg10.dtd">
<svg version="1.0" xmlns="http://www.w3.org/2000/svg"
 width="500.000000pt" height="500.000000pt" viewBox="0 0 500.000000 500.000000"
 preserveAspectRatio="xMidYMid meet">
<metadata>
Created by potrace 1.14, written by Peter Selinger 2001-2017
</metadata>
<g transform="translate(0.000000,500.000000) scale(0.100000,-0.100000)"
fill="#000000" stroke="none">
<path d="M2299 3564 l-146 -146 -182 0 c-169 -1 -201 -5 -167 -25 29 -17 39
-59 42 -169 l2 -111 -319 -319 c-175 -175 -319 -322 -319 -326 0 -5 279 -287
621 -629 l621 -621 25 24 c15 12 52 49 84 81 l58 59 63 -11 c98 -15 291 -7
368 17 137 41 257 111 344 201 l50 51 1 197 c1 109 0 203 -2 208 -2 6 -33 10
-73 10 -39 0 -70 1 -70 3 0 2 80 84 178 182 97 97 188 189 201 203 l24 26
-620 621 c-341 341 -624 620 -629 620 -5 0 -75 -66 -155 -146z m566 -335 c215
-216 381 -389 370 -384 -114 43 -262 65 -427 61 l-148 -3 0 54 c0 66 2 53 -17
115 -50 170 -165 278 -345 325 l-68 18 108 110 c77 80 111 108 122 103 8 -4
191 -184 405 -399z m-751 160 c3 -3 -30 -40 -73 -83 l-79 -78 -1 83 -1 84 74
0 c41 0 77 -2 80 -6z m173 -46 c134 -64 235 -233 243 -408 3 -73 1 -83 -22
-91 -51 -15 -164 -92 -224 -151 -58 -57 -141 -171 -157 -216 -6 -15 -16 -17
-68 -14 -99 7 -94 -12 -96 360 l-2 322 117 117 c128 130 116 125 209 81z
m-442 -570 c-1 -142 -5 -266 -10 -276 -4 -10 -16 -22 -26 -28 -44 -23 -14 -29
139 -29 l159 0 -25 -82 c-22 -72 -25 -102 -26 -228 0 -109 5 -162 18 -215 61
-234 206 -403 419 -491 l65 -27 -49 -48 c-28 -27 -53 -49 -57 -49 -4 0 -269
262 -589 583 l-583 582 283 283 c155 155 282 282 283 282 1 0 0 -116 -1 -257z
m1105 75 c141 -44 263 -137 331 -255 17 -29 35 -53 41 -53 7 0 9 38 6 110 -2
61 -3 110 0 110 7 0 292 -286 292 -293 0 -4 -92 -99 -205 -212 -179 -179 -209
-205 -231 -201 -23 5 -25 2 -20 -20 5 -19 -1 -32 -30 -60 -19 -20 -39 -32 -43
-28 -10 11 -101 233 -101 245 0 5 3 8 8 8 56 -9 66 20 64 185 -2 149 -6 162
-52 169 -17 3 -26 13 -32 35 -11 43 -32 51 -122 51 -77 -1 -104 -12 -107 -45
-1 -8 -2 -19 -3 -26 0 -6 -11 -12 -23 -13 -13 -1 -31 -9 -41 -18 -15 -14 -17
-33 -16 -154 1 -76 2 -146 3 -155 1 -17 35 -34 59 -30 17 4 17 1 -24 -93 -7
-16 -22 -55 -33 -85 -12 -30 -26 -64 -31 -75 -11 -24 -76 -183 -116 -282 -16
-40 -31 -73 -34 -73 -26 2 -116 125 -162 222 -37 76 -73 184 -83 252 -4 21 -9
48 -11 60 -6 30 -5 226 1 261 11 58 14 62 69 74 163 36 318 196 341 354 7 42
10 47 39 52 82 13 192 6 266 -17z m-425 -70 c-19 -152 -117 -272 -247 -302
l-27 -6 14 41 c41 115 123 223 214 280 25 16 47 29 49 29 1 0 0 -19 -3 -42z
m423 -172 c9 -15 11 -231 2 -247 -10 -15 -136 -20 -163 -7 -15 8 -17 23 -16
131 1 67 6 125 12 128 16 11 157 7 165 -5z m-202 -158 c-1 -73 1 -86 20 -105
19 -19 33 -22 91 -22 77 0 114 14 120 44 2 11 4 53 4 93 -1 70 0 72 23 72 14
0 27 -4 31 -9 10 -16 8 -282 -2 -292 -14 -14 -323 -13 -336 0 -13 13 -17 258
-5 284 5 9 19 17 32 17 24 0 24 -2 22 -82z m210 -335 l1 -83 -93 0 -94 0 0 84
0 83 93 -1 92 -1 1 -82z m55 -38 c7 -16 13 -32 14 -35 1 -3 9 -23 19 -45 28
-63 29 -88 6 -103 -22 -13 -21 -15 -55 79 -14 39 -19 188 -5 154 4 -11 14 -33
21 -50z m-265 -13 c-1 -54 -10 -87 -43 -167 -48 -114 -69 -167 -72 -177 -1 -4
-13 -32 -26 -62 -14 -31 -31 -72 -40 -92 -15 -36 -16 -36 -35 -19 -25 23 -25
23 4 87 13 29 36 85 51 123 15 39 36 89 47 113 10 24 32 78 49 120 34 88 58
142 63 142 2 0 3 -30 2 -68z m64 -231 l0 -180 -85 -85 c-46 -48 -90 -86 -97
-86 -7 0 -23 8 -36 18 l-22 17 102 248 c80 194 106 247 120 247 17 0 18 -13
18 -179z m86 48 c1 -129 -8 -163 -46 -187 -17 -10 -18 -1 -18 146 1 86 3 160
5 165 2 4 16 6 31 4 l27 -4 1 -124z m65 111 c4 -8 19 -40 32 -71 l25 -56 -37
-39 c-69 -73 -66 -76 -65 54 1 65 2 121 3 125 2 13 33 3 42 -13z m290 -27 c20
-40 26 -375 7 -390 -11 -9 -26 19 -77 147 l-65 159 55 55 c30 30 57 55 60 56
3 0 12 -12 20 -27z m-138 -135 c8 -18 27 -64 42 -103 16 -38 36 -88 45 -110
31 -70 32 -80 10 -100 -11 -10 -21 -16 -23 -14 -4 5 -62 146 -99 240 -30 75
-30 77 -12 97 11 11 20 21 21 21 1 1 8 -14 16 -31z m-53 -78 c8 -19 23 -57 35
-85 12 -27 29 -70 39 -95 10 -25 23 -54 28 -64 8 -15 6 -23 -8 -34 -88 -67
-276 -87 -409 -44 l-59 19 62 63 62 63 0 -46 c0 -52 20 -66 21 -14 1 65 9 91
33 114 14 13 27 23 29 23 2 0 3 -36 1 -80 -1 -44 2 -82 7 -85 11 -7 11 -10 14
95 2 47 3 88 4 92 2 15 116 127 122 120 3 -4 12 -23 19 -42z"/>
<path d="M2830 2510 c-24 -24 -25 -29 -4 -59 13 -18 22 -21 43 -16 14 4 29 12
33 18 14 22 8 56 -11 67 -28 14 -38 13 -61 -10z m44 -6 c20 -8 21 -28 2 -43
-20 -17 -52 15 -35 35 13 16 12 16 33 8z"/>
<path d="M3020 1230 c0 -11 6 -20 13 -20 19 0 27 10 20 26 -8 21 -33 17 -33
-6z"/>
</g>
</svg>
